<svg width="40" height="41" viewBox="0 0 40 41" fill="none" xmlns="http://www.w3.org/2000/svg">
<circle cx="20" cy="20.1455" r="20" fill="#260719"/>
<path d="M20 29.75C25.3848 29.75 29.75 25.3848 29.75 20C29.75 14.6152 25.3848 10.25 20 10.25C14.6152 10.25 10.25 14.6152 10.25 20C10.25 25.3848 14.6152 29.75 20 29.75Z" stroke="#F9F9F9" stroke-linecap="round" stroke-linejoin="round"/>
<path d="M24.0625 15.9375H22.4375C22.117 15.9362 21.7995 15.9983 21.5031 16.1203C21.2068 16.2423 20.9376 16.4218 20.711 16.6485C20.4843 16.8751 20.3048 17.1443 20.1828 17.4406C20.0608 17.737 19.9987 18.0545 20 18.375V29.75" stroke="#F9F9F9" stroke-linecap="round" stroke-linejoin="round"/>
<path d="M16.75 21.625H23.25" stroke="#F9F9F9" stroke-linecap="round" stroke-linejoin="round"/>
</svg>
