<svg width="40" height="41" viewBox="0 0 40 41" fill="none" xmlns="http://www.w3.org/2000/svg">
<circle cx="20" cy="20.1455" r="20" fill="#260719"/>
<path d="M20 24.0625C22.2437 24.0625 24.0625 22.2437 24.0625 20C24.0625 17.7563 22.2437 15.9375 20 15.9375C17.7563 15.9375 15.9375 17.7563 15.9375 20C15.9375 22.2437 17.7563 24.0625 20 24.0625Z" stroke="#F9F9F9" stroke-miterlimit="10"/>
<path d="M24.4688 10.6562H15.5312C12.8389 10.6562 10.6562 12.8389 10.6562 15.5312V24.4688C10.6562 27.1611 12.8389 29.3438 15.5312 29.3438H24.4688C27.1611 29.3438 29.3438 27.1611 29.3438 24.4688V15.5312C29.3438 12.8389 27.1611 10.6562 24.4688 10.6562Z" stroke="#F9F9F9" stroke-linecap="round" stroke-linejoin="round"/>
<path d="M25.2812 15.9375C25.9543 15.9375 26.5 15.3918 26.5 14.7188C26.5 14.0457 25.9543 13.5 25.2812 13.5C24.6082 13.5 24.0625 14.0457 24.0625 14.7188C24.0625 15.3918 24.6082 15.9375 25.2812 15.9375Z" fill="#F9F9F9"/>
</svg>
