<svg width="40" height="41" viewBox="0 0 40 41" fill="none" xmlns="http://www.w3.org/2000/svg">
<circle cx="20" cy="20.1455" r="20" fill="#260719"/>
<path d="M19.9986 15.9374C19.9986 13.703 21.8775 11.8444 24.1119 11.8749C24.8944 11.8839 25.6576 12.1188 26.3098 12.5512C26.962 12.9836 27.4755 13.5952 27.7884 14.3124H31.3736L28.0931 17.5929C27.8814 20.8881 26.4227 23.9791 24.0136 26.2373C21.6044 28.4955 18.4257 29.7515 15.1236 29.7499C11.8736 29.7499 11.0611 28.5311 11.0611 28.5311C11.0611 28.5311 14.3111 27.3124 15.9361 24.8749C15.9361 24.8749 9.4361 21.6249 11.0611 12.6874C11.0611 12.6874 15.1236 16.7499 19.9986 17.5624V15.9374Z" stroke="#F9F9F9" stroke-linecap="round" stroke-linejoin="round"/>
</svg>
