<svg width="40" height="41" viewBox="0 0 40 41" fill="none" xmlns="http://www.w3.org/2000/svg">
<circle cx="20" cy="20.1455" r="20" fill="#260719"/>
<path d="M23.25 20L18.375 16.75V23.25L23.25 20Z" fill="#F9F9F9" stroke="#F9F9F9" stroke-linecap="round" stroke-linejoin="round"/>
<path d="M9.4375 20.0005C9.4375 23.027 9.75234 24.7942 9.98594 25.7083C10.0503 25.9563 10.1721 26.1857 10.3415 26.378C10.5109 26.5703 10.723 26.7201 10.9609 26.8153C14.3633 28.1153 20 28.0848 20 28.0848C20 28.0848 25.6367 28.1153 29.0391 26.8153C29.277 26.7201 29.4891 26.5703 29.6585 26.378C29.8279 26.1857 29.9497 25.9563 30.0141 25.7083C30.2477 24.7942 30.5625 23.027 30.5625 20.0005C30.5625 16.9739 30.2477 15.2067 30.0141 14.2926C29.9497 14.0446 29.8279 13.8152 29.6585 13.6229C29.4891 13.4306 29.277 13.2808 29.0391 13.1856C25.6367 11.8856 20 11.9161 20 11.9161C20 11.9161 14.3633 11.8856 10.9609 13.1856C10.723 13.2808 10.5109 13.4306 10.3415 13.6229C10.1721 13.8152 10.0503 14.0446 9.98594 14.2926C9.75234 15.2067 9.4375 16.9739 9.4375 20.0005Z" stroke="#F9F9F9" stroke-linecap="round" stroke-linejoin="round"/>
</svg>
