<svg width="24" height="23" viewBox="0 0 24 23" fill="none" xmlns="http://www.w3.org/2000/svg">
<path d="M7.52935 20.462C8.30872 20.462 8.94053 19.8302 8.94053 19.0508C8.94053 18.2715 8.30872 17.6396 7.52935 17.6396C6.74997 17.6396 6.11816 18.2715 6.11816 19.0508C6.11816 19.8302 6.74997 20.462 7.52935 20.462Z" fill="#333333"/>
<path d="M16.7022 20.462C17.4816 20.462 18.1134 19.8302 18.1134 19.0508C18.1134 18.2715 17.4816 17.6396 16.7022 17.6396C15.9228 17.6396 15.291 18.2715 15.291 19.0508C15.291 19.8302 15.9228 20.462 16.7022 20.462Z" fill="#333333"/>
<path d="M4.20443 6.35023H20.0273L17.6989 14.4998C17.6158 14.7956 17.4379 15.0559 17.1925 15.2407C16.9471 15.4256 16.6478 15.5247 16.3406 15.5229H7.89114C7.58393 15.5247 7.28464 15.4256 7.03925 15.2407C6.79386 15.0559 6.61596 14.7956 6.53288 14.4998L3.34007 3.33382C3.29788 3.18631 3.20876 3.05657 3.08621 2.96426C2.96366 2.87195 2.81437 2.8221 2.66094 2.82227H1.1792" stroke="#333333" stroke-width="1.33421" stroke-linecap="round" stroke-linejoin="round"/>
</svg>
