<svg width="24" height="23" viewBox="0 0 24 23" fill="none" xmlns="http://www.w3.org/2000/svg">
<path d="M7.52935 20.5773C8.30872 20.5773 8.94053 19.9454 8.94053 19.1661C8.94053 18.3867 8.30872 17.7549 7.52935 17.7549C6.74997 17.7549 6.11816 18.3867 6.11816 19.1661C6.11816 19.9454 6.74997 20.5773 7.52935 20.5773Z" fill="#F9F9F9"/>
<path d="M16.7022 20.5773C17.4816 20.5773 18.1134 19.9454 18.1134 19.1661C18.1134 18.3867 17.4816 17.7549 16.7022 17.7549C15.9228 17.7549 15.291 18.3867 15.291 19.1661C15.291 19.9454 15.9228 20.5773 16.7022 20.5773Z" fill="#F9F9F9"/>
<path d="M4.20443 6.46546H20.0273L17.6989 14.6151C17.6158 14.9108 17.4379 15.1711 17.1925 15.356C16.9471 15.5408 16.6478 15.6399 16.3406 15.6382H7.89114C7.58393 15.6399 7.28464 15.5408 7.03925 15.356C6.79386 15.1711 6.61596 14.9108 6.53288 14.6151L3.34007 3.44905C3.29788 3.30155 3.20876 3.17181 3.08621 3.0795C2.96366 2.98719 2.81437 2.93734 2.66094 2.9375H1.1792" stroke="#F9F9F9" stroke-width="1.33421" stroke-linecap="round" stroke-linejoin="round"/>
</svg>
